<?xml version="1.0" encoding="utf-8"?>
<!-- Generator: Adobe Illustrator 28.3.0, SVG Export Plug-In . SVG Version: 6.00 Build 0)  -->
<svg fill="currentColor" version="1.1" id="Layer_1" xmlns="http://www.w3.org/2000/svg" xmlns:xlink="http://www.w3.org/1999/xlink" x="0px" y="0px"
	 viewBox="0 0 841.89 595.28" style="enable-background:new 0 0 841.89 595.28;" xml:space="preserve">
<g fill="currentColor">
	<path d="M562.96,313.75c-28.8-28.93-57.49-57.98-86.82-86.36c-13.65-13.2-30.79-18.49-49.96-17.01
		c-17.7,1.36-31.98,9.35-44.26,21.64c-38.06,38.06-76.17,76.07-114.17,114.19c-31.31,31.4-45.04,69.04-38.24,113.15
		c5.57,36.13,23.33,65.27,55.12,83.94c40.96,24.06,83.27,23.93,125.3,2.33c14.76-7.59,28.65-8.02,43.2-0.05
		c18.88,10.34,39.22,15.4,60.78,15.38c6.34,0.04,12.63-0.26,18.93-1.19c30.26-4.48,55.71-17.86,74.95-41.72
		c37.72-46.8,36.89-114.14-1.8-160.39C592.8,341.92,577.41,328.27,562.96,313.75z M434.88,500.09c-2.71,2.73-4.02,2.53-6.61-0.07
		c-19.97-20.09-40.15-39.97-60.16-60.02c-7.26-7.28-10.89-16.19-10.68-31.46c0.47-10.02,6.78-21.58,20.67-27.62
		c13.94-6.07,27.33-4.17,39.34,5.5c1.29,1.04,2.44,2.27,3.63,3.43c6.68,6.5,14.5,6.53,21.06-0.09
		c10.78-10.89,23.57-14.61,38.35-10.53c26.53,7.32,34.18,41.48,13.9,61.6C474.51,460.55,454.6,480.23,434.88,500.09z M584.52,504.25
		c-15.18,17.39-35.11,26.41-57.86,29.44c-25.7,3.43-49.02-3.22-71.05-16.79c9.79-9.8,19.54-19.57,29.31-29.31
		c9.79-9.77,19.74-19.37,29.37-29.29c33.57-34.59,18.32-92.88-27.35-104.95c-18.05-4.77-34.98-1.89-50.77,7.65
		c-3.46,2.09-5.73,2.08-9.2-0.04c-38.29-23.41-85.42-3.74-94.86,39.96c-4.62,21.39,1.04,40.82,16.29,56.62
		c17.81,18.46,36.28,36.27,54.51,54.32c1.53,1.51,3.39,2.68,5.63,4.43c-20.43,12.59-40.91,19.25-63.68,18.3
		c-47.19-1.96-83.82-35.47-89.53-82.31c-4-32.84,5.56-61.34,28.74-84.76c40.08-40.49,80.55-80.6,120.95-120.78
		c13.64-13.56,39.14-13.81,52.78-0.3c40.83,40.45,81.84,80.73,122.09,121.76C617.12,406.15,618.88,464.92,584.52,504.25z"/>
	<path d="M482.81,196.46c14.37,13.34,32.83,15,48.85,3.75c11.74-8.25,18.84-20.01,23.76-33.2c6.75-18.08,8.78-36.77,6.98-55.93
		c-1.8-19.19-6.71-37.32-18.38-53.04c-8.29-11.16-18.79-18.96-33.3-19.3c-15.57-0.36-26.95,7.67-35.69,19.63
		c-14.02,19.18-18.49,41.29-18.68,64.54c-0.32,8.21,0.56,16.34,2.1,24.34C462.03,165.86,468.42,183.11,482.81,196.46z M489.36,86.57
		c2.44-6.43,5.76-12.36,10.94-17.05c6.06-5.49,12.7-5.43,18.67,0.07c9.18,8.46,12.45,19.82,15.15,31.35
		c1.7,7.27,2.44,14.74,2.34,22.27c-0.47,16.96-2.94,33.41-12.66,47.94c-1.01,1.51-2.18,2.94-3.45,4.24
		c-7.65,7.83-16.07,7.3-22.83-1.4c-5.7-7.34-9.34-15.65-11.37-24.68C481.36,128.1,481.57,107.12,489.36,86.57z"/>
	<path d="M320.73,185.36c15.38,18.86,38.07,22.63,56.07,9.05c6.85-5.17,12.24-11.75,16.39-19.28c9.72-17.62,13.72-36.61,13.44-58.25
		c0.2-7.21-0.4-16-2.24-24.66c-4.06-19.07-11.07-36.57-26.5-49.61c-12.03-10.17-29.28-11.89-42.85-3.89
		c-16.09,9.49-24.14,24.81-29.54,41.81c-5.96,18.74-6.6,38-3.9,57.3C304.03,155.15,309.42,171.49,320.73,185.36z M336.57,74.4
		c2.08-4.23,4.99-7.86,8.68-10.81c5.51-4.41,11.99-4.2,17.19,0.62c9.8,9.08,13.37,21.18,15.87,33.67
		c1.37,6.84,1.97,13.81,2.09,21.26c-0.59,16-3.07,31.95-12.16,46.2c-1.63,2.56-3.54,4.83-5.8,6.8c-5.85,5.1-12.17,5.19-17.91,0
		c-7.01-6.35-10.8-14.65-13.32-23.56C324.07,123.23,324.79,98.4,336.57,74.4z"/>
	<path d="M273.03,278.59c19.64-27.96,18.89-71.08-1.17-98.74c-19.78-27.28-55.04-27.69-75.33-0.97
		c-11.35,14.94-15.53,32.08-16.18,49.49c0.35,19.29,4.21,36.6,15.3,51.67c8.88,12.07,20.34,19.93,35.8,20.84
		C249.88,301.95,263.07,292.79,273.03,278.59z M217.51,264.9c-7.49-10.4-10.35-22.16-10.28-34.82c0.25-14.18,3.23-27.47,13.44-38.07
		c8.08-8.38,17.61-8.49,25.96-0.41c8.57,8.29,11.96,19.06,13.33,30.47c1.87,15.54-0.69,30.25-10.19,43.12
		C240.4,277.91,226.72,277.7,217.51,264.9z"/>
	<path d="M666.06,183.18c-18.9-24.35-50.14-25.69-70.84-2.97c-10.78,11.84-16.31,26.12-18.19,41.86
		c-2.73,22.9,0.64,44.52,14.47,63.62c18.4,25.41,50.68,27.44,71.82,4.42c14.15-15.4,19.14-34.21,19.23-60.92
		C682.73,216.21,677.99,198.55,666.06,183.18z M642.4,273.3c-9.1,8.92-19.95,8.32-28.01-1.67c-8.76-10.86-11.51-23.68-11.93-38.54
		c0.58-11.59,3.5-23.66,11.73-33.99c8.48-10.64,19.46-11.17,28.96-1.39C660.76,215.84,660.36,255.71,642.4,273.3z"/>
</g>
</svg>
